<mxfile host="app.diagrams.net" modified="2021-03-22T06:13:48.191Z" agent="5.0 (Macintosh; Intel Mac OS X 11_1_0) AppleWebKit/537.36 (KHTML, like Gecko) Chrome/89.0.4389.90 Safari/537.36" etag="Vb6MxPsv6LszitSkKuMe" version="14.4.9" type="github">
  <diagram id="9x6jfjo3_AwitSL5KCYd" name="Page-1">
    <mxGraphModel dx="2707" dy="4963" grid="1" gridSize="10" guides="1" tooltips="1" connect="1" arrows="1" fold="1" page="1" pageScale="1" pageWidth="827" pageHeight="1169" math="0" shadow="0">
      <root>
        <mxCell id="0" />
        <mxCell id="1" parent="0" />
        <mxCell id="l-jQmxxYC-PZyaftMykp-98" value="" style="shape=cylinder;whiteSpace=wrap;html=1;boundedLbl=1;backgroundOutline=1;" vertex="1" parent="1">
          <mxGeometry x="-80" y="70" width="1360" height="930" as="geometry" />
        </mxCell>
        <mxCell id="l-jQmxxYC-PZyaftMykp-1" value="" style="shape=cylinder;whiteSpace=wrap;html=1;boundedLbl=1;backgroundOutline=1;" vertex="1" parent="1">
          <mxGeometry x="20" y="220" width="520" height="620" as="geometry" />
        </mxCell>
        <mxCell id="l-jQmxxYC-PZyaftMykp-11" value="&lt;font style=&quot;font-size: 20px&quot;&gt;コンテナ　bitlogger&lt;/font&gt;" style="text;html=1;align=center;verticalAlign=middle;resizable=0;points=[];autosize=1;" vertex="1" parent="1">
          <mxGeometry x="180" y="250" width="190" height="20" as="geometry" />
        </mxCell>
        <mxCell id="l-jQmxxYC-PZyaftMykp-18" style="edgeStyle=orthogonalEdgeStyle;rounded=0;orthogonalLoop=1;jettySize=auto;html=1;entryX=0;entryY=0.5;entryDx=0;entryDy=0;" edge="1" parent="1" source="l-jQmxxYC-PZyaftMykp-12" target="l-jQmxxYC-PZyaftMykp-15">
          <mxGeometry relative="1" as="geometry">
            <Array as="points">
              <mxPoint x="155" y="475" />
            </Array>
          </mxGeometry>
        </mxCell>
        <mxCell id="l-jQmxxYC-PZyaftMykp-19" style="edgeStyle=orthogonalEdgeStyle;rounded=0;orthogonalLoop=1;jettySize=auto;html=1;entryX=0;entryY=0.5;entryDx=0;entryDy=0;" edge="1" parent="1" source="l-jQmxxYC-PZyaftMykp-12" target="l-jQmxxYC-PZyaftMykp-16">
          <mxGeometry relative="1" as="geometry">
            <Array as="points">
              <mxPoint x="155" y="515" />
            </Array>
          </mxGeometry>
        </mxCell>
        <mxCell id="l-jQmxxYC-PZyaftMykp-30" style="edgeStyle=orthogonalEdgeStyle;rounded=0;orthogonalLoop=1;jettySize=auto;html=1;entryX=0.25;entryY=0;entryDx=0;entryDy=0;" edge="1" parent="1" source="l-jQmxxYC-PZyaftMykp-12" target="l-jQmxxYC-PZyaftMykp-29">
          <mxGeometry relative="1" as="geometry">
            <Array as="points">
              <mxPoint x="155" y="440" />
              <mxPoint x="155" y="440" />
            </Array>
          </mxGeometry>
        </mxCell>
        <mxCell id="l-jQmxxYC-PZyaftMykp-12" value="&lt;pre class=&quot;c-mrkdwn__pre&quot; style=&quot;box-sizing: inherit ; margin-top: 4px ; margin-bottom: 4px ; padding: 8px ; line-height: 1.50001 ; overflow-wrap: break-word ; word-break: normal ; border: 1px solid ; border-radius: 4px&quot;&gt;&lt;font color=&quot;#000000&quot;&gt;95ab43cc8cb1435f94e2b886327e1b5a&lt;/font&gt;&lt;/pre&gt;" style="rounded=0;whiteSpace=wrap;html=1;align=center;fillColor=#dae8fc;strokeColor=#6c8ebf;" vertex="1" parent="1">
          <mxGeometry x="80" y="360" width="260" height="50" as="geometry" />
        </mxCell>
        <mxCell id="l-jQmxxYC-PZyaftMykp-24" style="edgeStyle=orthogonalEdgeStyle;rounded=0;orthogonalLoop=1;jettySize=auto;html=1;entryX=0;entryY=0.5;entryDx=0;entryDy=0;" edge="1" parent="1" source="l-jQmxxYC-PZyaftMykp-15" target="l-jQmxxYC-PZyaftMykp-23">
          <mxGeometry relative="1" as="geometry" />
        </mxCell>
        <mxCell id="l-jQmxxYC-PZyaftMykp-15" value="Sfida" style="rounded=0;whiteSpace=wrap;html=1;fillColor=#dae8fc;strokeColor=#6c8ebf;" vertex="1" parent="1">
          <mxGeometry x="175" y="460" width="70" height="30" as="geometry" />
        </mxCell>
        <mxCell id="l-jQmxxYC-PZyaftMykp-26" style="edgeStyle=orthogonalEdgeStyle;rounded=0;orthogonalLoop=1;jettySize=auto;html=1;entryX=0;entryY=0.5;entryDx=0;entryDy=0;" edge="1" parent="1" source="l-jQmxxYC-PZyaftMykp-16" target="l-jQmxxYC-PZyaftMykp-25">
          <mxGeometry relative="1" as="geometry" />
        </mxCell>
        <mxCell id="l-jQmxxYC-PZyaftMykp-28" style="edgeStyle=orthogonalEdgeStyle;rounded=0;orthogonalLoop=1;jettySize=auto;html=1;entryX=0;entryY=0.5;entryDx=0;entryDy=0;" edge="1" parent="1" source="l-jQmxxYC-PZyaftMykp-16" target="l-jQmxxYC-PZyaftMykp-27">
          <mxGeometry relative="1" as="geometry" />
        </mxCell>
        <mxCell id="l-jQmxxYC-PZyaftMykp-16" value="MDL001" style="rounded=0;whiteSpace=wrap;html=1;fillColor=#dae8fc;strokeColor=#6c8ebf;" vertex="1" parent="1">
          <mxGeometry x="175" y="500" width="70" height="30" as="geometry" />
        </mxCell>
        <mxCell id="l-jQmxxYC-PZyaftMykp-23" value="Sam013_190234.bin" style="rounded=0;whiteSpace=wrap;html=1;" vertex="1" parent="1">
          <mxGeometry x="295" y="460" width="145" height="30" as="geometry" />
        </mxCell>
        <mxCell id="l-jQmxxYC-PZyaftMykp-25" value="Sam013_190234.bin" style="rounded=0;whiteSpace=wrap;html=1;" vertex="1" parent="1">
          <mxGeometry x="295" y="500" width="145" height="30" as="geometry" />
        </mxCell>
        <mxCell id="l-jQmxxYC-PZyaftMykp-27" value="Sam013_190234.bin" style="rounded=0;whiteSpace=wrap;html=1;" vertex="1" parent="1">
          <mxGeometry x="295" y="550" width="145" height="30" as="geometry" />
        </mxCell>
        <mxCell id="l-jQmxxYC-PZyaftMykp-44" style="edgeStyle=orthogonalEdgeStyle;rounded=0;orthogonalLoop=1;jettySize=auto;html=1;entryX=0;entryY=0.5;entryDx=0;entryDy=0;" edge="1" parent="1" source="l-jQmxxYC-PZyaftMykp-29" target="l-jQmxxYC-PZyaftMykp-37">
          <mxGeometry relative="1" as="geometry">
            <Array as="points">
              <mxPoint x="160" y="695" />
            </Array>
          </mxGeometry>
        </mxCell>
        <mxCell id="l-jQmxxYC-PZyaftMykp-45" style="edgeStyle=orthogonalEdgeStyle;rounded=0;orthogonalLoop=1;jettySize=auto;html=1;entryX=0;entryY=0.5;entryDx=0;entryDy=0;" edge="1" parent="1" source="l-jQmxxYC-PZyaftMykp-29" target="l-jQmxxYC-PZyaftMykp-40">
          <mxGeometry relative="1" as="geometry">
            <Array as="points">
              <mxPoint x="160" y="735" />
            </Array>
          </mxGeometry>
        </mxCell>
        <mxCell id="l-jQmxxYC-PZyaftMykp-29" value="&lt;pre class=&quot;c-mrkdwn__pre&quot; style=&quot;box-sizing: inherit ; margin-top: 4px ; margin-bottom: 4px ; padding: 8px ; line-height: 1.50001 ; overflow-wrap: break-word ; word-break: normal ; border: 1px solid ; border-radius: 4px&quot;&gt;123456788cb1435f94e2b886327e1b5a&lt;/pre&gt;" style="rounded=0;whiteSpace=wrap;html=1;align=center;fillColor=#dae8fc;strokeColor=#6c8ebf;" vertex="1" parent="1">
          <mxGeometry x="90" y="600" width="260" height="50" as="geometry" />
        </mxCell>
        <mxCell id="l-jQmxxYC-PZyaftMykp-36" style="edgeStyle=orthogonalEdgeStyle;rounded=0;orthogonalLoop=1;jettySize=auto;html=1;entryX=0;entryY=0.5;entryDx=0;entryDy=0;" edge="1" parent="1" source="l-jQmxxYC-PZyaftMykp-37" target="l-jQmxxYC-PZyaftMykp-41">
          <mxGeometry relative="1" as="geometry" />
        </mxCell>
        <mxCell id="l-jQmxxYC-PZyaftMykp-37" value="Sfida" style="rounded=0;whiteSpace=wrap;html=1;fillColor=#dae8fc;strokeColor=#6c8ebf;" vertex="1" parent="1">
          <mxGeometry x="175" y="680" width="70" height="30" as="geometry" />
        </mxCell>
        <mxCell id="l-jQmxxYC-PZyaftMykp-38" style="edgeStyle=orthogonalEdgeStyle;rounded=0;orthogonalLoop=1;jettySize=auto;html=1;entryX=0;entryY=0.5;entryDx=0;entryDy=0;" edge="1" parent="1" source="l-jQmxxYC-PZyaftMykp-40" target="l-jQmxxYC-PZyaftMykp-42">
          <mxGeometry relative="1" as="geometry" />
        </mxCell>
        <mxCell id="l-jQmxxYC-PZyaftMykp-39" style="edgeStyle=orthogonalEdgeStyle;rounded=0;orthogonalLoop=1;jettySize=auto;html=1;entryX=0;entryY=0.5;entryDx=0;entryDy=0;" edge="1" parent="1" source="l-jQmxxYC-PZyaftMykp-40" target="l-jQmxxYC-PZyaftMykp-43">
          <mxGeometry relative="1" as="geometry" />
        </mxCell>
        <mxCell id="l-jQmxxYC-PZyaftMykp-40" value="MDL001" style="rounded=0;whiteSpace=wrap;html=1;fillColor=#dae8fc;strokeColor=#6c8ebf;" vertex="1" parent="1">
          <mxGeometry x="175" y="720" width="70" height="30" as="geometry" />
        </mxCell>
        <mxCell id="l-jQmxxYC-PZyaftMykp-41" value="Sam013_190234.bin" style="rounded=0;whiteSpace=wrap;html=1;" vertex="1" parent="1">
          <mxGeometry x="295" y="680" width="145" height="30" as="geometry" />
        </mxCell>
        <mxCell id="l-jQmxxYC-PZyaftMykp-42" value="Sam013_190234.bin" style="rounded=0;whiteSpace=wrap;html=1;" vertex="1" parent="1">
          <mxGeometry x="295" y="720" width="145" height="30" as="geometry" />
        </mxCell>
        <mxCell id="l-jQmxxYC-PZyaftMykp-43" value="Sam013_190234.bin" style="rounded=0;whiteSpace=wrap;html=1;" vertex="1" parent="1">
          <mxGeometry x="295" y="770" width="145" height="30" as="geometry" />
        </mxCell>
        <mxCell id="l-jQmxxYC-PZyaftMykp-72" value="" style="shape=cylinder;whiteSpace=wrap;html=1;boundedLbl=1;backgroundOutline=1;" vertex="1" parent="1">
          <mxGeometry x="670" y="230" width="520" height="620" as="geometry" />
        </mxCell>
        <mxCell id="l-jQmxxYC-PZyaftMykp-73" value="&lt;font style=&quot;font-size: 20px&quot;&gt;コンテナー　bitlogger-dev&lt;/font&gt;" style="text;html=1;align=center;verticalAlign=middle;resizable=0;points=[];autosize=1;" vertex="1" parent="1">
          <mxGeometry x="790" y="250" width="250" height="20" as="geometry" />
        </mxCell>
        <mxCell id="l-jQmxxYC-PZyaftMykp-74" style="edgeStyle=orthogonalEdgeStyle;rounded=0;orthogonalLoop=1;jettySize=auto;html=1;entryX=0;entryY=0.5;entryDx=0;entryDy=0;" edge="1" parent="1" source="l-jQmxxYC-PZyaftMykp-77" target="l-jQmxxYC-PZyaftMykp-79">
          <mxGeometry relative="1" as="geometry">
            <Array as="points">
              <mxPoint x="795" y="475" />
            </Array>
          </mxGeometry>
        </mxCell>
        <mxCell id="l-jQmxxYC-PZyaftMykp-75" style="edgeStyle=orthogonalEdgeStyle;rounded=0;orthogonalLoop=1;jettySize=auto;html=1;entryX=0;entryY=0.5;entryDx=0;entryDy=0;" edge="1" parent="1" source="l-jQmxxYC-PZyaftMykp-77" target="l-jQmxxYC-PZyaftMykp-82">
          <mxGeometry relative="1" as="geometry">
            <Array as="points">
              <mxPoint x="795" y="515" />
            </Array>
          </mxGeometry>
        </mxCell>
        <mxCell id="l-jQmxxYC-PZyaftMykp-76" style="edgeStyle=orthogonalEdgeStyle;rounded=0;orthogonalLoop=1;jettySize=auto;html=1;entryX=0.25;entryY=0;entryDx=0;entryDy=0;" edge="1" parent="1" source="l-jQmxxYC-PZyaftMykp-77" target="l-jQmxxYC-PZyaftMykp-88">
          <mxGeometry relative="1" as="geometry">
            <Array as="points">
              <mxPoint x="795" y="440" />
              <mxPoint x="795" y="440" />
            </Array>
          </mxGeometry>
        </mxCell>
        <mxCell id="l-jQmxxYC-PZyaftMykp-77" value="&lt;pre class=&quot;c-mrkdwn__pre&quot; style=&quot;box-sizing: inherit ; margin-top: 4px ; margin-bottom: 4px ; padding: 8px ; line-height: 1.50001 ; overflow-wrap: break-word ; word-break: normal ; border: 1px solid ; border-radius: 4px&quot;&gt;95ab43cc8cb1435f94e2b886327e1b5a&lt;/pre&gt;" style="rounded=0;whiteSpace=wrap;html=1;align=center;fillColor=#dae8fc;strokeColor=#6c8ebf;" vertex="1" parent="1">
          <mxGeometry x="720" y="360" width="260" height="50" as="geometry" />
        </mxCell>
        <mxCell id="l-jQmxxYC-PZyaftMykp-78" style="edgeStyle=orthogonalEdgeStyle;rounded=0;orthogonalLoop=1;jettySize=auto;html=1;entryX=0;entryY=0.5;entryDx=0;entryDy=0;" edge="1" parent="1" source="l-jQmxxYC-PZyaftMykp-79" target="l-jQmxxYC-PZyaftMykp-83">
          <mxGeometry relative="1" as="geometry" />
        </mxCell>
        <mxCell id="l-jQmxxYC-PZyaftMykp-79" value="Sfida" style="rounded=0;whiteSpace=wrap;html=1;fillColor=#dae8fc;strokeColor=#6c8ebf;" vertex="1" parent="1">
          <mxGeometry x="815" y="460" width="70" height="30" as="geometry" />
        </mxCell>
        <mxCell id="l-jQmxxYC-PZyaftMykp-80" style="edgeStyle=orthogonalEdgeStyle;rounded=0;orthogonalLoop=1;jettySize=auto;html=1;entryX=0;entryY=0.5;entryDx=0;entryDy=0;" edge="1" parent="1" source="l-jQmxxYC-PZyaftMykp-82" target="l-jQmxxYC-PZyaftMykp-84">
          <mxGeometry relative="1" as="geometry" />
        </mxCell>
        <mxCell id="l-jQmxxYC-PZyaftMykp-81" style="edgeStyle=orthogonalEdgeStyle;rounded=0;orthogonalLoop=1;jettySize=auto;html=1;entryX=0;entryY=0.5;entryDx=0;entryDy=0;" edge="1" parent="1" source="l-jQmxxYC-PZyaftMykp-82" target="l-jQmxxYC-PZyaftMykp-85">
          <mxGeometry relative="1" as="geometry" />
        </mxCell>
        <mxCell id="l-jQmxxYC-PZyaftMykp-82" value="MDL001" style="rounded=0;whiteSpace=wrap;html=1;fillColor=#dae8fc;strokeColor=#6c8ebf;" vertex="1" parent="1">
          <mxGeometry x="815" y="500" width="70" height="30" as="geometry" />
        </mxCell>
        <mxCell id="l-jQmxxYC-PZyaftMykp-83" value="Sam013_190234.bin" style="rounded=0;whiteSpace=wrap;html=1;" vertex="1" parent="1">
          <mxGeometry x="935" y="460" width="145" height="30" as="geometry" />
        </mxCell>
        <mxCell id="l-jQmxxYC-PZyaftMykp-84" value="Sam013_190234.bin" style="rounded=0;whiteSpace=wrap;html=1;" vertex="1" parent="1">
          <mxGeometry x="935" y="500" width="145" height="30" as="geometry" />
        </mxCell>
        <mxCell id="l-jQmxxYC-PZyaftMykp-85" value="Sam013_190234.bin" style="rounded=0;whiteSpace=wrap;html=1;" vertex="1" parent="1">
          <mxGeometry x="935" y="550" width="145" height="30" as="geometry" />
        </mxCell>
        <mxCell id="l-jQmxxYC-PZyaftMykp-86" style="edgeStyle=orthogonalEdgeStyle;rounded=0;orthogonalLoop=1;jettySize=auto;html=1;entryX=0;entryY=0.5;entryDx=0;entryDy=0;" edge="1" parent="1" source="l-jQmxxYC-PZyaftMykp-88" target="l-jQmxxYC-PZyaftMykp-90">
          <mxGeometry relative="1" as="geometry">
            <Array as="points">
              <mxPoint x="800" y="695" />
            </Array>
          </mxGeometry>
        </mxCell>
        <mxCell id="l-jQmxxYC-PZyaftMykp-87" style="edgeStyle=orthogonalEdgeStyle;rounded=0;orthogonalLoop=1;jettySize=auto;html=1;entryX=0;entryY=0.5;entryDx=0;entryDy=0;" edge="1" parent="1" source="l-jQmxxYC-PZyaftMykp-88" target="l-jQmxxYC-PZyaftMykp-93">
          <mxGeometry relative="1" as="geometry">
            <Array as="points">
              <mxPoint x="800" y="735" />
            </Array>
          </mxGeometry>
        </mxCell>
        <mxCell id="l-jQmxxYC-PZyaftMykp-88" value="&lt;pre class=&quot;c-mrkdwn__pre&quot; style=&quot;box-sizing: inherit ; margin-top: 4px ; margin-bottom: 4px ; padding: 8px ; line-height: 1.50001 ; overflow-wrap: break-word ; word-break: normal ; border: 1px solid ; border-radius: 4px&quot;&gt;123456788cb1435f94e2b886327e1b5a&lt;/pre&gt;" style="rounded=0;whiteSpace=wrap;html=1;align=center;fillColor=#dae8fc;strokeColor=#6c8ebf;" vertex="1" parent="1">
          <mxGeometry x="730" y="600" width="260" height="50" as="geometry" />
        </mxCell>
        <mxCell id="l-jQmxxYC-PZyaftMykp-89" style="edgeStyle=orthogonalEdgeStyle;rounded=0;orthogonalLoop=1;jettySize=auto;html=1;entryX=0;entryY=0.5;entryDx=0;entryDy=0;" edge="1" parent="1" source="l-jQmxxYC-PZyaftMykp-90" target="l-jQmxxYC-PZyaftMykp-94">
          <mxGeometry relative="1" as="geometry" />
        </mxCell>
        <mxCell id="l-jQmxxYC-PZyaftMykp-90" value="Sfida" style="rounded=0;whiteSpace=wrap;html=1;fillColor=#dae8fc;strokeColor=#6c8ebf;" vertex="1" parent="1">
          <mxGeometry x="815" y="680" width="70" height="30" as="geometry" />
        </mxCell>
        <mxCell id="l-jQmxxYC-PZyaftMykp-91" style="edgeStyle=orthogonalEdgeStyle;rounded=0;orthogonalLoop=1;jettySize=auto;html=1;entryX=0;entryY=0.5;entryDx=0;entryDy=0;" edge="1" parent="1" source="l-jQmxxYC-PZyaftMykp-93" target="l-jQmxxYC-PZyaftMykp-95">
          <mxGeometry relative="1" as="geometry" />
        </mxCell>
        <mxCell id="l-jQmxxYC-PZyaftMykp-92" style="edgeStyle=orthogonalEdgeStyle;rounded=0;orthogonalLoop=1;jettySize=auto;html=1;entryX=0;entryY=0.5;entryDx=0;entryDy=0;" edge="1" parent="1" source="l-jQmxxYC-PZyaftMykp-93" target="l-jQmxxYC-PZyaftMykp-96">
          <mxGeometry relative="1" as="geometry" />
        </mxCell>
        <mxCell id="l-jQmxxYC-PZyaftMykp-93" value="MDL001" style="rounded=0;whiteSpace=wrap;html=1;fillColor=#dae8fc;strokeColor=#6c8ebf;" vertex="1" parent="1">
          <mxGeometry x="815" y="720" width="70" height="30" as="geometry" />
        </mxCell>
        <mxCell id="l-jQmxxYC-PZyaftMykp-94" value="Sam013_190234.bin" style="rounded=0;whiteSpace=wrap;html=1;" vertex="1" parent="1">
          <mxGeometry x="935" y="680" width="145" height="30" as="geometry" />
        </mxCell>
        <mxCell id="l-jQmxxYC-PZyaftMykp-95" value="Sam013_190234.bin" style="rounded=0;whiteSpace=wrap;html=1;" vertex="1" parent="1">
          <mxGeometry x="935" y="720" width="145" height="30" as="geometry" />
        </mxCell>
        <mxCell id="l-jQmxxYC-PZyaftMykp-96" value="Sam013_190234.bin" style="rounded=0;whiteSpace=wrap;html=1;" vertex="1" parent="1">
          <mxGeometry x="935" y="770" width="145" height="30" as="geometry" />
        </mxCell>
        <mxCell id="l-jQmxxYC-PZyaftMykp-99" value="&lt;font style=&quot;font-size: 30px&quot;&gt;DLSG2&lt;/font&gt;" style="text;html=1;align=center;verticalAlign=middle;resizable=0;points=[];autosize=1;" vertex="1" parent="1">
          <mxGeometry x="560" y="90" width="110" height="30" as="geometry" />
        </mxCell>
        <mxCell id="l-jQmxxYC-PZyaftMykp-101" value="&lt;font style=&quot;font-size: 20px&quot;&gt;本番用&lt;/font&gt;" style="text;html=1;align=center;verticalAlign=middle;resizable=0;points=[];autosize=1;" vertex="1" parent="1">
          <mxGeometry x="235" y="180" width="80" height="20" as="geometry" />
        </mxCell>
        <mxCell id="l-jQmxxYC-PZyaftMykp-102" value="&lt;font style=&quot;font-size: 20px&quot;&gt;開発用&lt;/font&gt;" style="text;html=1;align=center;verticalAlign=middle;resizable=0;points=[];autosize=1;" vertex="1" parent="1">
          <mxGeometry x="910" y="180" width="80" height="20" as="geometry" />
        </mxCell>
        <mxCell id="l-jQmxxYC-PZyaftMykp-105" value="" style="rounded=0;whiteSpace=wrap;html=1;fillColor=#dae8fc;strokeColor=#6c8ebf;" vertex="1" parent="1">
          <mxGeometry x="1340" y="110" width="120" height="40" as="geometry" />
        </mxCell>
        <mxCell id="l-jQmxxYC-PZyaftMykp-106" value="&lt;font style=&quot;font-size: 20px&quot;&gt;フォルダー&lt;/font&gt;" style="text;html=1;align=center;verticalAlign=middle;resizable=0;points=[];autosize=1;" vertex="1" parent="1">
          <mxGeometry x="1455" y="120" width="110" height="20" as="geometry" />
        </mxCell>
        <mxCell id="l-jQmxxYC-PZyaftMykp-107" value="" style="rounded=0;whiteSpace=wrap;html=1;" vertex="1" parent="1">
          <mxGeometry x="1340" y="180" width="120" height="40" as="geometry" />
        </mxCell>
        <mxCell id="l-jQmxxYC-PZyaftMykp-108" value="&lt;font style=&quot;font-size: 20px&quot;&gt;ファイル&lt;/font&gt;" style="text;html=1;align=center;verticalAlign=middle;resizable=0;points=[];autosize=1;" vertex="1" parent="1">
          <mxGeometry x="1455" y="190" width="90" height="20" as="geometry" />
        </mxCell>
      </root>
    </mxGraphModel>
  </diagram>
</mxfile>
